<?xml version="1.0" standalone="no"?>
<!DOCTYPE svg PUBLIC "-//W3C//DTD SVG 20010904//EN"
 "http://www.w3.org/TR/2001/REC-SVG-20010904/DTD/svg10.dtd">
<svg version="1.0" xmlns="http://www.w3.org/2000/svg"
 width="240.000000pt" height="240.000000pt" viewBox="0 0 240.000000 240.000000"
 preserveAspectRatio="xMidYMid meet">
<metadata>
Created by potrace 1.11, written by Peter Selinger 2001-2013
</metadata>
<g transform="translate(0.000000,240.000000) scale(0.100000,-0.100000)"
fill="#000000" stroke="none">
<path d="M1345 2215 c-27 -7 -102 -25 -165 -39 -63 -15 -142 -33 -175 -41 -33
-7 -112 -25 -175 -40 -63 -14 -142 -32 -175 -40 -57 -13 -147 -34 -245 -56
-304 -68 -383 -88 -392 -97 -9 -9 -9 -18 -1 -34 7 -13 19 -63 28 -113 9 -49
20 -112 25 -140 23 -124 69 -382 91 -510 6 -33 17 -91 24 -130 7 -38 21 -112
31 -163 13 -72 21 -95 37 -103 11 -6 63 -50 116 -98 53 -47 119 -106 146 -130
231 -202 359 -317 372 -337 15 -24 53 -33 53 -14 0 9 47 33 100 50 14 4 63 22
110 40 47 17 96 35 110 40 38 13 159 57 220 80 30 12 75 28 100 36 45 15 109
39 410 149 85 31 184 67 220 80 36 13 86 31 113 40 26 10 47 24 47 31 0 8 -4
14 -9 14 -6 0 -90 57 -188 127 -226 161 -533 380 -556 397 -18 14 -29 69 -57
281 -5 39 -17 115 -25 170 -13 86 -53 353 -71 480 -11 82 -13 85 -42 84 -15 0
-49 -7 -77 -14z m19 -152 c7 -32 53 -299 66 -388 5 -33 17 -98 25 -145 21
-114 34 -194 42 -257 5 -48 4 -53 -14 -53 -11 0 -39 -6 -64 -14 -24 -7 -62
-19 -84 -25 -22 -6 -65 -17 -95 -26 -51 -14 -343 -94 -490 -135 -36 -9 -101
-28 -145 -40 -200 -56 -259 -70 -266 -62 -6 6 -40 171 -69 332 -21 115 -71
377 -80 415 -24 112 -31 158 -23 165 4 4 85 24 178 45 196 42 322 70 415 91
36 8 85 19 110 24 25 5 77 17 115 26 39 8 121 26 184 39 62 13 116 27 119 30
3 3 20 5 38 5 27 0 33 -4 38 -27z"/>
</g>
</svg>
